<svg xmlns="http://www.w3.org/2000/svg" width="242.625" height="29.545" viewBox="0 0 242.625 29.545"><g transform="translate(0 0)"><g transform="translate(0 7.685)"><path d="M936.41,651.925l0-.008a106.026,106.026,0,0,0-4.538-12.619h-6.631a92.117,92.117,0,0,0-4.4,12.619h0l-.1.35a1.708,1.708,0,0,1-.433.795h5.859a1.429,1.429,0,0,1-.22-.952c.114-.495.237-1,.363-1.509h3.941c.132.489.249.969.362,1.443v0a1.4,1.4,0,0,1-.207,1.014h6.531a1.457,1.457,0,0,1-.367-.592C936.52,652.289,936.463,652.108,936.41,651.925Zm-9.348-4.287c.365-1.39.751-2.8,1.162-4.169.411,1.366.845,2.779,1.23,4.169Z" transform="translate(-898.954 -639.092)" fill="red"/><path d="M955.643,647.374h-.022a4.066,4.066,0,0,0,2.826-3.829c0-3.736-3.807-4.512-8.228-4.512-1.46,0-3.031.047-4.516.157v0l-.209.016h-.028l-.883.067a1.539,1.539,0,0,1,.238.881v.366h0v11.223h0v.379a1.537,1.537,0,0,1-.238.88h6.261a1.491,1.491,0,0,1-.236-.836v-3.88c1.162.5,1.231,5.194,5.15,5.194a3.194,3.194,0,0,0,3.464-2.87,2.478,2.478,0,0,0-.024-.433C957.353,650.177,957.125,647.965,955.643,647.374Zm-4.558-1.664a3.525,3.525,0,0,1-.477-.044v-2.8a3.511,3.511,0,0,1,.477-.022c1.094,0,1.825.523,1.825,1.368A1.614,1.614,0,0,1,951.085,645.71Z" transform="translate(-904.384 -639.033)" fill="red"/><path d="M911.914,639.3h-7.967a78.054,78.054,0,0,0-1.747,7.953c-.293-1.839-1.224-6.275-1.747-7.953H892.8a1.544,1.544,0,0,1,.238.881v.379h0V651.8h0v.379a1.542,1.542,0,0,1-.238.88h5.282a1.488,1.488,0,0,1-.236-.839v-7.411c.638,1.892,1.664,6.29,2.1,8.25h4.1c.365-1.959,1.551-6.312,2.143-8.2V651.8h0v.379a1.551,1.551,0,0,1-.238.88h5.965a1.485,1.485,0,0,1-.236-.839V640.135A1.485,1.485,0,0,1,911.914,639.3Z" transform="translate(-892.802 -639.092)" fill="red"/><path d="M973.122,639.3h-6.261a1.54,1.54,0,0,1,.237.881v.379h0V651.8h0v.379a1.538,1.538,0,0,1-.237.88h6.261a1.489,1.489,0,0,1-.237-.836V640.134A1.491,1.491,0,0,1,973.122,639.3Z" transform="translate(-909.367 -639.092)" fill="red"/><path d="M994.443,653.061a1.448,1.448,0,0,1-.368-.6l0-.009,0-.008c-.034-.113-.064-.227-.1-.34l-.017-.056-.016-.055-.022-.081h0a106.3,106.3,0,0,0-4.538-12.618h-6.63a91.969,91.969,0,0,0-4.4,12.619h0l-.05.178-.037.127-.006.025-.007.021a1.674,1.674,0,0,1-.43.795h5.858a1.4,1.4,0,0,1-.207-1.017h0c.11-.474.227-.954.349-1.443h3.941c.133.489.25.968.365,1.443h0a1.4,1.4,0,0,1-.206,1.017h6.53Zm-9.878-5.423c.364-1.39.753-2.8,1.162-4.169.413,1.366.846,2.779,1.233,4.169Z" transform="translate(-911.818 -639.092)" fill="red"/></g><g transform="translate(103.732 7.684)"><path d="M1056.823,640.557v-.379a1.541,1.541,0,0,1,.238-.881H1050.8a1.54,1.54,0,0,1,.238.881v12a1.539,1.539,0,0,1-.238.88h10.539v-4.079h-4.514Z" transform="translate(-1031.874 -639.091)" fill="red"/><path d="M1087.317,640.557v-.379a1.54,1.54,0,0,1,.237-.881h-7.968a78.607,78.607,0,0,0-1.747,7.954c-.294-1.84-1.224-6.276-1.747-7.954h-7.651a1.538,1.538,0,0,1,.238.881v12a1.536,1.536,0,0,1-.238.88h5.282a1.537,1.537,0,0,1-.238-.88v-7.369c.639,1.891,1.664,6.29,2.1,8.249h4.1c.364-1.959,1.551-6.312,2.143-8.2v7.323a1.545,1.545,0,0,1-.238.88h5.965a1.538,1.538,0,0,1-.237-.88V640.557Z" transform="translate(-1035.821 -639.091)" fill="red"/><path d="M1131.54,640.557v-.379a1.54,1.54,0,0,1,.238-.881h-5.488a1.545,1.545,0,0,1,.238.881v5.34l-4.536-6.221h-5a1.541,1.541,0,0,1,.238.881v12a1.539,1.539,0,0,1-.238.88h5.488a1.541,1.541,0,0,1-.238-.88v-5.41l4.512,6.29h5.023a1.539,1.539,0,0,1-.238-.88V640.557Z" transform="translate(-1046.681 -639.091)" fill="red"/><path d="M1174.286,647.373h-.025a4.062,4.062,0,0,0,2.826-3.829c0-3.736-3.8-4.512-8.225-4.512-1.461,0-3.033.049-4.517.157h0l-.191.015-.055,0-.875.066a1.54,1.54,0,0,1,.238.881v11.969a1.537,1.537,0,0,1-.238.88h6.262a1.539,1.539,0,0,1-.238-.88v-3.837c1.162.5,1.23,5.194,5.15,5.194a3.194,3.194,0,0,0,3.464-2.87,2.751,2.751,0,0,0-.022-.433C1175.993,650.176,1175.766,647.964,1174.286,647.373Zm-4.558-1.664a3.593,3.593,0,0,1-.48-.044v-2.8a3.572,3.572,0,0,1,.48-.022c1.093,0,1.822.523,1.822,1.368A1.614,1.614,0,0,1,1169.728,645.709Z" transform="translate(-1057.022 -639.032)" fill="red"/><path d="M1098.681,639.3h-1.12a1.54,1.54,0,0,1,.238.881v12a1.538,1.538,0,0,1-.238.88h11.406V649.1h-5.382v-1.459h4.535v-2.984h-4.535v-1.435h5.377l0-.023v-3.9Z" transform="translate(-1042.334 -639.091)" fill="red"/><path d="M1042.674,652.447c-.032-.113-.063-.227-.1-.34l-.017-.056-.037-.135h0a105.873,105.873,0,0,0-4.537-12.619h-6.631a92.021,92.021,0,0,0-4.4,12.619l-.085.3-.015.047a1.676,1.676,0,0,1-.431.8h5.857a1.408,1.408,0,0,1-.21-1l0-.017c.11-.474.228-.954.347-1.443h3.941c.133.489.25.969.365,1.443h0a1.4,1.4,0,0,1-.207,1.017h6.53a1.466,1.466,0,0,1-.372-.606Zm-9.5-4.81c.365-1.39.75-2.8,1.162-4.169.411,1.365.844,2.779,1.231,4.169Z" transform="translate(-1026.422 -639.091)" fill="red"/><path d="M1155.208,652.447c-.032-.113-.064-.227-.1-.34l-.017-.056-.037-.135h0a105.856,105.856,0,0,0-4.538-12.619h-6.63a91.989,91.989,0,0,0-4.4,12.619l-.086.3-.015.047a1.675,1.675,0,0,1-.43.8h5.857a1.414,1.414,0,0,1-.21-1l0-.017c.109-.474.228-.954.347-1.443h3.942c.132.489.25.969.365,1.443h0a1.405,1.405,0,0,1-.207,1.017h6.53a1.459,1.459,0,0,1-.372-.606Zm-9.5-4.81c.364-1.39.751-2.8,1.162-4.169.411,1.365.844,2.779,1.231,4.169Z" transform="translate(-1051.593 -639.091)" fill="red"/><path d="M1200.171,652.455l0-.008c-.032-.113-.064-.227-.1-.34l-.017-.056-.036-.135h0a105.922,105.922,0,0,0-4.539-12.619h-6.63a92.022,92.022,0,0,0-4.4,12.619l-.085.3-.015.047a1.677,1.677,0,0,1-.431.8h5.857a1.408,1.408,0,0,1-.21-1l0-.017c.11-.474.227-.954.346-1.443h3.942c.133.489.25.969.365,1.443h0a1.4,1.4,0,0,1-.207,1.017h6.529A1.476,1.476,0,0,1,1200.171,652.455Zm-9.5-4.818c.364-1.39.751-2.8,1.162-4.169.411,1.365.844,2.779,1.231,4.169Z" transform="translate(-1061.65 -639.091)" fill="red"/></g><path d="M1014.688,633.5h-1.758a.3.3,0,0,1-.3-.305v-.354a1.915,1.915,0,1,0-1.36,0v.354a.3.3,0,0,1-.3.305h-1.758a.545.545,0,0,0-.546.545V653.77a.545.545,0,0,0,.546.545h1.755a.3.3,0,0,1,.3.306v.354a1.915,1.915,0,1,0,1.36,0v-.354a.305.305,0,0,1,.3-.306h1.753a.545.545,0,0,0,.546-.545V634.042A.545.545,0,0,0,1014.688,633.5Z" transform="translate(-918.72 -629.134)" fill="red"/></g></svg>